<?xml version="1.0" encoding="UTF-8"?>
<svg width="16" height="16" version="1.1" xml:space="preserve" xmlns="http://www.w3.org/2000/svg"><path d="m1 3v10h6.002c-0.02-0.25778-0.029-0.54222-0.172-0.91111-0.318-0.81889-0.815-0.80667-0.83-1.7-0.014-0.89333 0.48-0.91111 0.772-1.7444 0.29-0.83333-0.062-1.2189 0.49-1.8644 0.552-0.64444 0.91-0.26111 1.638-0.62 0.73-0.36 0.723-0.91889 1.518-0.93778 0.795-0.018889 0.807 0.54 1.547 0.86333 0.441 0.19333 0.742 0.13111 1.035 0.17778v-3.2633zm9.5 5.1133a1.929 2.1667 0 0 0-1.928 2.1656 1.929 2.1667 0 0 0 1.928 2.1656 1.929 2.1667 0 0 0 1.93-2.1667 1.929 2.1667 0 0 0-1.93-2.1644zm0 0.44222a1.5 1.6667 0 0 1 1.5 1.6667 1.5 1.6667 0 0 1-1.5 1.6667 1.5 1.6667 0 0 1-1.5-1.6667 1.5 1.6667 0 0 1 1.5-1.6667z" fill="#fff" fill-opacity=".8" stroke-width="1.0541"/><path d="m0 2v12h7.576c-0.071028-0.048707-0.13762-0.10359-0.199-0.164-0.314-0.306-0.354-0.554-0.377-0.836h-6v-10h12v3.938c0.199 0.028 0.392 0.103 0.623 0.328 0.318 0.309 0.354 0.558 0.377 0.845v-6.111zm4 2v2h6v-2zm-2 3v1h4.938c0.033-0.19 0.111-0.376 0.322-0.598 0.373-0.393 0.662-0.363 1.033-0.402zm0 2v1h4.158c0.167-0.268 0.431-0.45 0.613-0.92 0.011-0.027 0.019-0.054 0.028-0.08zm7 0.326c-0.15577 0.20007-0.27128 0.42905-0.34 0.674h0.34zm-7 1.674v1h4.738c-0.254-0.453-0.57-0.58-0.69-1zm6.625 0c0.066467 0.28269 0.19459 0.5468 0.375 0.773v-0.773z" fill="#999"/><path d="M10.436 7c-.618.013-.613.4-1.18.648-.567.25-.846-.017-1.275.43-.43.447-.155.715-.381 1.291-.226.577-.61.589-.6 1.207.012.619.398.612.645 1.178s-.02.845.426 1.273c.445.428.715.153 1.29.377.576.225.585.61 1.204.596.618-.013.612-.4 1.18-.649.567-.249.846.018 1.275-.43.43-.446.155-.714.38-1.29s.612-.587.6-1.205c-.01-.619-.397-.614-.644-1.18s.02-.846-.426-1.273c-.445-.428-.715-.151-1.29-.375-.577-.225-.586-.611-1.204-.598zm.064 2a1.5 1.5 0 1 1 0 3 1.5 1.5 0 0 1 0-3zM9 13v2.982l1.49-1.662L12 15.982V13z" fill="#dcb519"/><path d="m15 1h1v10h-1zm-13-1h14v1h-14z" fill="#999"/></svg>
