<svg width="16" height="16" version="1.1" xml:space="preserve" xmlns="http://www.w3.org/2000/svg"><path d="m3.0208 3v2h-3v1h3v2h-3v1h3v2h-3v1h3v2h5.5664c-0.43347-0.60003-1.1468-0.95508-2.0371-0.95508h-0.07227l-0.07031-0.0098c-0.71958-0.10276-1.3828-0.74668-1.3828-1.4902s0.66323-1.3874 1.3828-1.4902l0.07031-0.0098h0.07227c1.5 0 2.4973-0.99711 2.4883-2.4941l-2e-3 -0.082031 0.01367-0.082031c0.26498-1.0824 1.015-1.2883 1.9708-1.3867 0 0 0.56934-0.00121 3 0v-1h-3v-2z" fill="#999"/><path d="m11.046 7.475c0 2 1.5 3.5 3.5 3.5 0.7 0.1 0.7 0.9 0 1-2 0-3.5 1.5-3.5 3.5-0.1 0.7-0.9 0.7-1 0 0-2-1.5-3.5-3.5-3.5-0.7-0.1-0.7-0.9 0-1 2 0 3.5-1.5 3.488-3.5 0.112-0.7 0.912-0.7 1.012 0z" fill="#eda200"/><path d="m5 0h8.0255l-0.025543 2h3v1h-4v-1h-7z" fill="#999" stroke-opacity=".49035" stroke-width="2.1415"/></svg>
