<svg width="16" height="16" version="1.1" xml:space="preserve" xmlns="http://www.w3.org/2000/svg"><path d="m4 2v2h-3v1h3v2h-3v1h3v2h-3v1h3v2h5.5664c-0.43347-0.60003-1.1468-0.95508-2.0371-0.95508h-0.072266l-0.070312-0.0098c-0.71958-0.10276-1.3828-0.74668-1.3828-1.4902 1e-7 -0.74352 0.66323-1.3874 1.3828-1.4902l0.070312-0.00977h0.072266c1.5 0 2.4973-0.99711 2.4883-2.4941l-2e-3 -0.082031 0.01367-0.082031c0.26498-1.0825 1.015-1.2883 1.9708-1.3867 0 0 0.56934-0.00121 3 0v-1h-3v-2z" fill="#999"/><path transform="translate(3.025,5.975)" d="m9 0.5c0 2 1.5 3.5 3.5 3.5 0.7 0.1 0.7 0.9 0 1-2 0-3.5 1.5-3.5 3.5-0.1 0.7-0.9 0.7-1 0 0-2-1.5-3.5-3.5-3.5-0.7-0.1-0.7-0.9 0-1 2 0 3.5-1.5 3.488-3.5 0.112-0.7 0.912-0.7 1.012 0z" fill="#b1b2b4"/></svg>
