<svg width="16" height="16" xmlns="http://www.w3.org/2000/svg"><path d="M14.018 9a7 7 0 1 1-14 0 7 7 0 0 1 14 0" fill="#F4AF3D" fill-opacity=".6"/><path fill="#231F20" fill-opacity=".7" d="M1,8 L2,8 L2,4 L3.5,4 L3.5,3 L2,3 C1.99687783,2.36169171 1.99509925,2.02835838 1.99466424,2 C1.98704681,1.50341351 2.13289549,1.0728225 2.43221029,0.972167969 C2.91964141,0.808253079 3.56884985,1.02114795 3.68984985,1.06414795 L3.98519897,0.226043701 C3.90948298,0.198825534 3.4559021,0 2.81140137,0 C2.16690063,1.40512602e-16 1.81677246,0.0614013672 1.4818929,0.388793945 C1.16513106,0.698473875 1.01614114,1.22015248 1.00124609,2 C1.00039414,2.04460465 0.999980878,2.95274463 1,3 C1.00000736,3.01819872 0.666674031,3.01819872 0,3 L0,3.972 L1,3.972 L1,8 Z" transform="translate(5 5)"/><path d="M8.477.02A7 7 0 0 0 5.02 1.266 8 8 0 0 1 7 1a8 8 0 0 1 8 8 8 8 0 0 1-.271 2.012A7 7 0 0 0 16 7 7 7 0 0 0 8.477.02z" fill="#F4AF3D" fill-opacity=".6"/></svg>