<svg width="16" height="16" xmlns="http://www.w3.org/2000/svg"><path d="M14.018 9a7 7 0 1 1-14 0 7 7 0 0 1 14 0" fill="#F4AF3D" fill-opacity=".6"/><path fill="#231F20" fill-opacity=".7" d="M6 13h1V9h1.5V8H7l-.005-1c-.008-.497.138-.927.437-1.028.488-.164 1.137.05 1.258.092l.295-.838C8.91 5.199 8.455 5 7.811 5c-.644 0-.994.061-1.33.389-.316.31-.465.831-.48 1.611L6 8c0 .018-.333.018-1 0v.972h1V13Z"/><path d="M8.477.02A7 7 0 0 0 5.02 1.266 8 8 0 0 1 7 1a8 8 0 0 1 8 8 8 8 0 0 1-.271 2.012A7 7 0 0 0 16 7 7 7 0 0 0 8.477.02z" fill="#F4AF3D" fill-opacity=".6"/></svg>