<svg width="16" height="16" xmlns="http://www.w3.org/2000/svg"><path d="M14.018 9a7 7 0 1 1-14 0 7 7 0 0 1 14 0" fill="#f98b9e" fill-opacity=".6"/><path d="M11.01 9c0-.749-.357-2-2.01-2-.87 0-1.324.502-1.383.6-.315-.406-.655-.6-1.499-.6-.468 0-.835.1-1.1.3V7h-1v5h1c-.033-1.844-.033-2.844 0-3 .05-.234.05-1 1-1s.999.537 1 1v3h1V9c0-.314-.04-1 .982-1s1.022.74 1.023 1v3h.992z" fill="#231f20" fill-opacity=".7"/><path d="M8.477.02A7 7 0 0 0 5.02 1.266 8 8 0 0 1 7 1a8 8 0 0 1 8 8 8 8 0 0 1-.271 2.012A7 7 0 0 0 16 7 7 7 0 0 0 8.477.02z" fill="#f88a9e" fill-opacity=".6"/></svg>