<svg width="16" height="16" xmlns="http://www.w3.org/2000/svg"><path d="M14 9A7 7 0 1 1 0 9a7 7 0 0 1 14 0" fill="#40b6e0" fill-opacity=".6"/><path d="M9 10.283c-.47.459-.972.695-1.9.717-1.039.022-2.1-.72-2.1-2 0-1.288.971-2 2.1-2 .848 0 1.448.185 1.8.554l.616-.717C8.83 6.27 8.288 6 7.098 6 5.34 6 4 7.358 4 9c0 1.682 1.364 3 3.002 3 1.29 0 2.021-.407 2.614-1.019z" fill="#231f20" fill-opacity=".7"/><path d="M8.477.02A7 7 0 0 0 5.02 1.266 8 8 0 0 1 7 1a8 8 0 0 1 8 8 8 8 0 0 1-.271 2.012A7 7 0 0 0 16 7 7 7 0 0 0 8.477.02z" fill="#3fb6df" fill-opacity=".6"/></svg>