<?xml version="1.0" encoding="UTF-8"?>
<svg width="16" height="16" version="1.1" xml:space="preserve" xmlns="http://www.w3.org/2000/svg"><path d="m10 0-3.2773 1.2754 6.2773 2.3926v5.332c0 1.7646-0.76748 3.2353-1.793 4.416 1.751-0.95531 4.793-3.0895 4.793-6.416v-4.666l-6-2.334z" fill="#73a9d8" stroke-width="1.1832"/><path d="m6 2-6 2.334v4.666c-1.308e-4 4.6667 6 7 6 7s6-2.3333 6-7v-4.666zm3.3105 4c0.17635 0 0.35373 0.0723 0.48828 0.21875 0.26912 0.29289 0.26912 0.76961 0 1.0625l-4.1348 4.5c-0.2691 0.2929-0.70551 0.2929-0.97461 0l-2.0684-2.25c-0.26912-0.29289-0.26912-0.76961 0-1.0625 0.2691-0.2929 0.70551-0.2929 0.97461 0l1.5801 1.7207 3.6484-3.9707c0.13455-0.14645 0.30998-0.21875 0.48633-0.21875z" fill="#73a9d8" stroke-width="1.1832"/></svg>
