<svg width="16" height="16" xml:space="preserve" xmlns="http://www.w3.org/2000/svg"><path d="M1 4v9h6.002c-.02-.232-.029-.488-.172-.82-.318-.737-.815-.726-.83-1.53-.014-.804.48-.82.772-1.57.29-.75-.062-1.097.49-1.678.552-.58.91-.235 1.638-.558.73-.324.723-.827 1.518-.844.795-.017.807.486 1.547.777.441.174.742.118 1.035.16V4zm9.5 4.602a1.929 1.95 0 0 0-1.928 1.949A1.929 1.95 0 0 0 10.5 12.5a1.929 1.95 0 0 0 1.93-1.95 1.929 1.95 0 0 0-1.93-1.948zm0 .398a1.5 1.5 0 0 1 1.5 1.5 1.5 1.5 0 0 1-1.5 1.5A1.5 1.5 0 0 1 9 10.5 1.5 1.5 0 0 1 10.5 9z" fill="#fff"/><path d="M0 3v11h7.576a1.464 1.464 0 0 1-.199-.164C7.063 13.53 7.023 13.282 7 13H1V4h12v2.938c.199.028.392.103.623.328.318.309.354.558.377.845V3zm4 2v1h6V5zM2 7v1h4.938c.033-.19.111-.376.322-.598.373-.393.662-.363 1.033-.402zm0 2v1h4.158c.167-.268.431-.45.613-.92.011-.027.019-.054.028-.08zm7 .326a1.929 1.95 0 0 0-.34.674H9zM2 11v1h4.738c-.254-.453-.57-.58-.69-1zm6.625 0a1.929 1.95 0 0 0 .375.773V11z" fill="#999"/><path d="M10.436 7c-.618.013-.613.4-1.18.648-.567.25-.846-.017-1.275.43-.43.447-.155.715-.381 1.291-.226.577-.61.589-.6 1.207.012.619.398.612.645 1.178s-.02.845.426 1.273c.445.428.715.153 1.29.377.576.225.585.61 1.204.596.618-.013.612-.4 1.18-.649.567-.249.846.018 1.275-.43.43-.446.155-.714.38-1.29s.612-.587.6-1.205c-.01-.619-.397-.614-.644-1.18s.02-.846-.426-1.273c-.445-.428-.715-.151-1.29-.375-.577-.225-.586-.611-1.204-.598zm.064 2a1.5 1.5 0 1 1 0 3 1.5 1.5 0 0 1 0-3zM9 13v2.982l1.49-1.662L12 15.982V13z" fill="#dcb519"/><path d="M2 .5h1V2H2zM15 1h1v10h-1zM2 0h14v1H2z" fill="#999"/><path fill="#fff" d="M3 1h12v1H3z"/></svg>