<svg width="16" height="16" xml:space="preserve" xmlns="http://www.w3.org/2000/svg"><path d="M2 3v9h6.002c-.02-.232-.029-.488-.172-.82-.318-.737-.815-.726-.83-1.53-.014-.804.48-.82.772-1.57.29-.75-.062-1.097.49-1.678.552-.58.91-.235 1.638-.558.73-.324.723-.827 1.518-.844.795-.017.807.486 1.547.777.441.174.742.118 1.035.16V3H2zm9.5 4.602A1.929 1.95 0 0 0 9.572 9.55 1.929 1.95 0 0 0 11.5 11.5a1.929 1.95 0 0 0 1.93-1.95 1.929 1.95 0 0 0-1.93-1.948zm0 .398A1.5 1.5 0 0 1 13 9.5a1.5 1.5 0 0 1-1.5 1.5A1.5 1.5 0 0 1 10 9.5 1.5 1.5 0 0 1 11.5 8z" fill="#fff"/><path d="M1 2v11h7.576a1.464 1.464 0 0 1-.199-.164C8.063 12.53 8.023 12.282 8 12H2V3h12v2.938c.199.028.392.103.623.328.318.309.354.558.377.845V2H1zm4 2v1h6V4H5zM3 6v1h4.938c.033-.19.111-.376.322-.598.373-.393.662-.363 1.033-.402H3zm0 2v1h4.158c.167-.268.431-.45.613-.92.011-.027.019-.054.028-.08H3zm7 .326A1.929 1.95 0 0 0 9.66 9H10v-.674zM3 10v1h4.738c-.254-.453-.57-.58-.69-1H3zm6.625 0a1.929 1.95 0 0 0 .375.773V10h-.375z" fill="#999"/><path d="M11.436 6c-.618.013-.613.4-1.18.648-.567.25-.846-.017-1.275.43-.43.447-.155.715-.381 1.291-.226.577-.61.589-.6 1.207.012.619.398.612.645 1.178s-.02.845.426 1.273c.445.428.715.153 1.29.377.576.225.585.61 1.204.596.618-.013.612-.4 1.18-.649.567-.249.846.018 1.275-.43.43-.446.155-.714.38-1.29s.612-.587.6-1.205c-.01-.619-.397-.614-.644-1.18s.02-.846-.426-1.273c-.445-.428-.715-.151-1.29-.375-.577-.225-.586-.611-1.204-.598zm.064 2a1.5 1.5 0 1 1 0 3 1.5 1.5 0 0 1 0-3zM10 12v4l1.49-1.662L13 16v-4z" fill="#b1b2b4"/></svg>